<svg version="1.1" id="Layer_1" xmlns="http://www.w3.org/2000/svg" xmlns:xlink="http://www.w3.org/1999/xlink" x="0px" y="0px"
	 width="100%" viewBox="0 0 272 224" enable-background="new 0 0 272 224" xml:space="preserve">
<path fill="#000000" opacity="1.000000" stroke="none" 
	d="
M203.348404,148.996689 
	C203.342255,153.328308 203.240997,157.163864 203.360779,160.992508 
	C203.449478,163.827927 202.087967,165.071106 199.460617,164.818024 
	C196.740204,164.555969 192.828857,166.434113 191.946732,162.193405 
	C191.400879,159.569366 189.851868,156.393692 192.934433,153.851028 
	C194.141373,152.855499 193.636139,151.016235 193.637650,149.540665 
	C193.656097,131.544022 193.566177,113.546661 193.720169,95.551323 
	C193.749466,92.128685 192.481598,90.030182 189.813599,88.108810 
	C175.216766,77.596809 160.666275,67.018669 146.214828,56.308125 
	C143.450180,54.259136 141.406784,54.343422 138.704361,56.342495 
	C124.107986,67.139931 109.424652,77.820404 94.719566,88.469749 
	C92.350624,90.185326 91.279510,92.163437 91.297203,95.166489 
	C91.405144,113.495781 91.452980,131.827072 91.266922,150.155106 
	C91.228600,153.928955 94.567329,156.448685 93.595764,160.803467 
	C92.502159,165.705200 89.504616,164.703598 86.550659,164.911072 
	C83.430458,165.130249 81.595490,164.189468 81.612320,160.467606 
	C81.720062,136.639206 81.695877,112.809998 81.625443,88.981323 
	C81.617607,86.333519 82.706879,84.631966 84.737717,83.155434 
	C102.794640,70.027122 120.849678,56.895756 138.830399,43.663578 
	C141.358978,41.802773 143.322098,41.551579 145.913254,43.566669 
	C150.329742,47.001297 155.003983,50.104515 160.415253,53.947258 
	C159.620316,46.568470 163.656662,46.364697 168.372330,46.651447 
	C172.522690,46.903824 176.723907,46.972473 180.860779,46.624390 
	C185.749390,46.213047 187.855896,47.694519 187.445267,52.959652 
	C187.006104,58.590847 187.465378,64.286423 187.303207,69.947334 
	C187.223053,72.744957 187.969940,74.962387 190.515884,76.143936 
	C201.981384,81.465004 204.413742,90.562317 203.599915,102.523689 
	C202.561661,117.783409 203.348160,133.167282 203.348404,148.996689 
z"/>
<path fill="#000000" opacity="1.000000" stroke="none" 
	d="
M121.717087,160.031189 
	C122.358414,155.316162 122.749619,151.003189 123.638000,146.795166 
	C124.832169,141.138748 130.242538,138.534592 135.411697,141.029678 
	C140.249512,143.364807 144.902603,143.512634 149.734085,140.987732 
	C154.193207,138.657425 160.221359,141.127609 161.131882,146.023621 
	C162.799057,154.988358 164.204956,164.025101 164.421768,173.179459 
	C164.513885,177.068604 162.256012,179.204132 158.619766,179.259277 
	C147.802139,179.423370 136.978424,179.412994 126.161011,179.234314 
	C122.695015,179.177048 120.891602,176.979996 120.654694,173.387024 
	C120.366440,169.015335 121.403214,164.785156 121.717087,160.031189 
z"/>
<path fill="#000000" opacity="1.000000" stroke="none" 
	d="
M180.250366,137.590149 
	C185.191498,138.891541 187.206848,141.857452 187.420151,146.715469 
	C187.630081,151.497025 188.825394,156.227661 189.213882,161.011032 
	C189.665512,166.571823 188.001709,168.189392 182.486786,168.393677 
	C178.837479,168.528854 175.175201,168.562698 171.545563,168.916809 
	C167.137192,169.346878 165.114548,167.460434 164.848053,163.123093 
	C164.644989,159.817993 163.923492,156.541275 163.779984,153.236847 
	C163.580902,148.652161 162.547150,144.393402 159.878433,140.660645 
	C161.260132,137.433304 163.914810,137.730408 166.756042,138.152283 
	C161.353104,131.987198 161.329910,125.485397 166.632492,121.957687 
	C170.255096,119.547638 174.145401,119.311646 177.821304,121.950432 
	C181.780701,124.792740 181.921494,128.823502 181.100006,133.155685 
	C180.817154,134.647354 178.574356,135.617905 180.250366,137.590149 
z"/>
<path fill="#000000" opacity="1.000000" stroke="none" 
	d="
M120.343735,159.130890 
	C120.082451,161.210419 119.711708,162.838257 119.616570,164.482056 
	C119.449867,167.362289 118.104897,168.525818 115.176720,168.417618 
	C110.701675,168.252274 106.215714,168.382172 101.734383,168.387390 
	C97.632057,168.392166 95.391403,166.372330 95.776604,162.247757 
	C96.361565,155.984253 97.033058,149.712936 98.075256,143.513428 
	C98.805855,139.167496 103.260139,136.784851 107.068932,138.625336 
	C111.000923,140.525345 114.704292,140.576874 118.488777,138.607010 
	C121.104446,137.245529 123.217323,137.638885 125.164543,140.404007 
	C120.847649,145.712585 121.716660,152.469986 120.343735,159.130890 
z"/>
<path fill="#000000" opacity="1.000000" stroke="none" 
	d="
M131.017975,133.671555 
	C130.514816,129.688263 129.964188,126.052597 132.084656,122.699120 
	C134.926025,118.205566 140.522156,115.901909 145.389862,117.258461 
	C151.194244,118.876053 154.692398,123.338722 154.758835,129.210663 
	C154.818207,134.459381 151.287384,139.393509 146.372070,140.930679 
	C140.893646,142.643951 135.638489,140.869537 132.388214,136.180359 
	C131.918533,135.502747 131.558853,134.748886 131.017975,133.671555 
z"/>
<path fill="#000000" opacity="1.000000" stroke="none" 
	d="
M109.097260,138.379044 
	C104.076805,135.788315 102.621193,131.822021 103.846535,126.956879 
	C104.958023,122.543831 108.357658,120.495148 112.655220,120.173645 
	C116.972404,119.850677 119.883621,122.202095 121.577850,126.012665 
	C123.227402,129.722763 122.495010,133.300171 119.845291,136.168106 
	C117.057587,139.185410 113.504570,140.277634 109.097260,138.379044 
z"/>
<path fill="#000000" opacity="1.000000" stroke="none" 
	d="
M140.456146,109.763985 
	C139.158997,110.169319 138.178680,110.389542 137.194473,110.408455 
	C126.111061,110.621452 125.306374,109.693970 126.674683,98.730476 
	C126.878098,97.100571 127.157524,95.681664 129.124786,95.622108 
	C132.283859,95.526482 135.447617,95.460861 138.606369,95.527130 
	C140.449738,95.565804 141.216782,96.844727 141.186874,98.558968 
	C141.123322,102.203239 141.737396,105.875587 140.456146,109.763985 
z"/>
<path fill="#000000" opacity="1.000000" stroke="none" 
	d="
M146.278717,95.796143 
	C147.237335,95.687012 147.732330,95.643234 148.227600,95.640167 
	C159.032364,95.573174 159.962219,96.722771 158.334335,107.625404 
	C158.072708,109.377548 157.471771,110.456955 155.649094,110.464279 
	C152.511810,110.476868 149.373627,110.427689 146.237091,110.351707 
	C145.415497,110.331802 144.655548,110.073784 144.144806,109.283089 
	C142.845703,107.271866 143.987854,97.907059 146.278717,95.796143 
z"/>
<path fill="#000000" opacity="1.000000" stroke="none" 
	d="
M129.172729,93.345299 
	C126.746864,91.270775 125.447243,80.758224 127.431686,79.627121 
	C131.038513,77.571274 135.239014,78.451332 139.122894,78.886009 
	C142.217819,79.232399 141.212509,82.241112 141.225418,84.215767 
	C141.296387,95.081001 142.175766,93.067314 129.172729,93.345299 
z"/>
<path fill="#000000" opacity="1.000000" stroke="none" 
	d="
M143.709305,86.939934 
	C144.111298,83.975983 142.380173,80.364952 145.204697,79.232613 
	C148.828400,77.779877 153.023163,78.355682 156.957306,79.035797 
	C157.853455,79.190720 158.133560,80.125214 158.208252,80.971886 
	C158.295441,81.960098 158.319763,82.955193 158.338287,83.947914 
	C158.514832,93.415901 156.101669,95.273582 146.600632,93.287605 
	C142.904846,92.515083 143.944443,89.724243 143.709305,86.939934 
z"/>
</svg>